<svg width="439" height="439" fill="none" xmlns="http://www.w3.org/2000/svg"><g opacity=".15" stroke="#EB5757" stroke-width="2"><path d="M219.5 416c-108.042 0-196-87.958-196-196 0-108.119 87.957-196 196-196 108.042 0 196 87.958 196 196s-87.958 196-196 196zm0-384.44C115.63 31.56 31.06 116.052 31.06 220s84.493 188.441 188.44 188.441S407.941 323.947 407.941 220 323.37 31.56 219.5 31.56z"/><path d="M219.5 438C99.055 438 1 339.945 1 219.5 1 98.97 99.054 1 219.5 1 339.945 1 438 99.055 438 219.5S339.945 438 219.5 438zm0-428.349C103.83 9.651 9.651 103.744 9.651 219.5c0 115.756 94.093 209.849 209.849 209.849 115.756 0 209.849-94.093 209.849-209.849 0-115.756-94.179-209.849-209.849-209.849z"/><path d="M219.499 396.498C122.163 396.498 43 317.336 43 220c0-97.336 79.163-176.5 176.499-176.5S395.998 122.665 395.998 220s-79.163 176.498-176.499 176.498zm0-345.438c-93.164 0-168.94 75.776-168.94 168.94 0 93.163 75.776 168.939 168.94 168.939S388.438 313.163 388.438 220c0-93.164-75.775-168.94-168.939-168.94z"/><path d="M219.501 377.303c-86.782 0-157.304-70.597-157.304-157.303 0-86.782 70.598-157.304 157.304-157.304S376.804 133.294 376.804 220s-70.521 157.303-157.303 157.303zm0-307.048C136.968 70.255 69.757 137.39 69.757 220c0 82.533 67.133 149.744 149.744 149.744 82.533 0 149.744-67.134 149.744-149.744 0-82.611-67.211-149.745-149.744-149.745z"/><path d="M219.499 358.108c-76.152 0-138.108-61.956-138.108-138.108S143.347 81.892 219.499 81.892 357.607 143.848 357.607 220s-61.956 138.108-138.108 138.108zm0-268.657C147.519 89.451 88.95 148.02 88.95 220s58.569 130.549 130.549 130.549S350.048 291.98 350.048 220 291.479 89.451 219.499 89.451z"/><path d="M219.499 338.913c-65.598 0-118.913-53.39-118.913-118.913 0-65.598 53.39-118.913 118.913-118.913 65.522 0 118.913 53.391 118.913 118.913 0 65.599-53.314 118.913-118.913 118.913zm0-230.267c-61.427 0-111.354 49.927-111.354 111.354 0 61.426 49.927 111.354 111.354 111.354 61.426 0 111.354-49.928 111.354-111.354 0-61.427-49.928-111.354-111.354-111.354z"/><path d="M219.501 319.718c-54.969 0-99.718-44.749-99.718-99.718s44.749-99.718 99.718-99.718 99.718 44.749 99.718 99.718-44.749 99.718-99.718 99.718zm0-191.876c-50.796 0-92.158 41.362-92.158 92.158s41.362 92.158 92.158 92.158 92.158-41.362 92.158-92.158c0-50.874-41.362-92.158-92.158-92.158z"/><path d="M219.497 300.523c-44.415 0-80.599-36.108-80.599-80.599 0-44.416 36.108-80.599 80.599-80.599 44.416 0 80.599 36.108 80.599 80.599 0 44.491-36.183 80.599-80.599 80.599zm0-153.486c-40.242 0-72.963 32.721-72.963 72.963 0 40.243 32.721 72.964 72.963 72.964 40.243 0 72.964-32.721 72.964-72.964 0-40.242-32.721-72.963-72.964-72.963z"/></g></svg>