<svg width="164" height="18" fill="none" xmlns="http://www.w3.org/2000/svg"><path d="M122.883 4.262v9.577h-2.179V4.262h2.179zM121.952 2.623a1.243 1.243 0 00.244-2.465 1.25 1.25 0 00-1.492 1.22 1.231 1.231 0 00.77 1.151c.152.063.314.094.478.094zM135.84.138v13.72h-2.179v-.878a4.15 4.15 0 01-3.022 1.148c-3.123 0-4.891-2.42-4.891-5.052 0-2.632 1.768-5.053 4.891-5.053a4.16 4.16 0 013.022 1.153V.124l2.179.014zm-5.067 5.888c-1.709 0-2.856 1.378-2.856 3.054 0 1.677 1.152 3.036 2.856 3.036a2.861 2.861 0 002.793-1.862c.138-.375.195-.775.169-1.174a2.87 2.87 0 00-.797-2.176 2.885 2.885 0 00-2.151-.878h-.014zM145.512 11.317h2.368a4.792 4.792 0 01-1.817 2.258 4.816 4.816 0 01-2.789.801 4.964 4.964 0 01-3.651-1.426 4.938 4.938 0 01-1.467-3.626 4.88 4.88 0 013.065-4.7 4.914 4.914 0 011.952-.352c2.855 0 4.868 2.172 4.868 4.965.011.29-.01.582-.064.868h-7.582c.112.665.464 1.265.991 1.689.526.423 1.19.639 1.865.607a2.575 2.575 0 002.261-1.084zm-5.066-2.976h5.274a2.46 2.46 0 00-2.57-2.136c-1.396 0-2.529.845-2.714 2.136h.01zM152.693 4.262v9.577h-2.174V4.262h2.174zM151.763 2.623a1.252 1.252 0 001.156-.765 1.24 1.24 0 00-.906-1.7 1.252 1.252 0 00-1.283.528 1.245 1.245 0 00.153 1.57c.233.234.55.365.88.367zM158.198.138v13.719h-2.174V.137h2.174z" fill="#070707"/><path d="M161.067 12.58c-.004.29.078.574.235.818a1.478 1.478 0 002.267.239c.206-.204.347-.465.405-.749a1.471 1.471 0 00-.627-1.502 1.415 1.415 0 00-.819-.243 1.444 1.444 0 00-1.461 1.378v.06z" fill="#ED2024"/><path opacity=".4" d="M9.304 7a2.126 2.126 0 01-1.068 1.938 2.3 2.3 0 011.16 2.044 2.613 2.613 0 01-1.252 2.2c-.97.623-2.11.93-3.262.877a5.677 5.677 0 01-3.297-.868A3.743 3.743 0 010 10.858h2.4c.347.866 1.216 1.3 2.607 1.3a3.116 3.116 0 001.561-.358 1.055 1.055 0 00.631-.92.916.916 0 00-.368-.766 1.699 1.699 0 00-.995-.267H3.533V8.075h2.234c.35.017.695-.078.986-.271a.919.919 0 00.359-.763 1.045 1.045 0 00-.599-.919 2.987 2.987 0 00-1.53-.353c-1.286 0-2.127.386-2.523 1.157H.078c.257-.9.83-1.679 1.612-2.195a5.641 5.641 0 013.252-.836 5.937 5.937 0 013.022.78A2.548 2.548 0 019.304 7zM14.247 18h-2.193V4.134h2.193v.918A4.004 4.004 0 0117.29 3.9a4.571 4.571 0 013.589 1.493 5.21 5.21 0 011.335 3.583 5.232 5.232 0 01-1.335 3.6 4.566 4.566 0 01-3.588 1.498 4 4 0 01-3.045-1.158V18zM15.044 6.7a2.892 2.892 0 00-.88 2.26 2.92 2.92 0 00.88 2.269c.57.528 1.322.817 2.1.804a2.67 2.67 0 002.073-.919 3.155 3.155 0 00.806-2.177 3.14 3.14 0 00-.806-2.159 2.661 2.661 0 00-2.073-.918c-.782 0-1.535.3-2.1.84zM29.332 3.886a5.038 5.038 0 014.802 3.12c.254.626.375 1.298.357 1.974a4.871 4.871 0 01-1.479 3.623 5.032 5.032 0 01-3.685 1.456 5.08 5.08 0 01-3.685-1.446A4.859 4.859 0 0124.16 8.98a4.888 4.888 0 011.483-3.643 5.068 5.068 0 013.69-1.451zm0 8.148a2.83 2.83 0 002.132-.864 3.049 3.049 0 00.83-2.19 3.051 3.051 0 00-.83-2.205 2.81 2.81 0 00-2.132-.868 2.84 2.84 0 00-2.128.877 3.034 3.034 0 00-.852 2.196 3 3 0 00.852 2.177 2.819 2.819 0 002.128.877zM41.957 4.3a4.724 4.724 0 013.478 1.41 4.758 4.758 0 011.405 3.476 4.582 4.582 0 01-1.47 3.468 5.035 5.035 0 01-3.62 1.405 4.705 4.705 0 01-3.745-1.548c-.897-1.031-1.345-2.477-1.345-4.335 0-2.254.338-3.938 1.013-5.053a4.03 4.03 0 013.27-1.906l1.779-.188c.408-.023.809-.124 1.179-.299a1.077 1.077 0 00.52-.73h2.193a3.064 3.064 0 01-.87 2.02 3.69 3.69 0 01-2.175.869l-2.377.243a2.652 2.652 0 00-1.782.827 2.83 2.83 0 00-.7 1.713c.7-.923 1.769-1.373 3.247-1.373zm-2.275 6.93a2.831 2.831 0 002.068.804 2.844 2.844 0 002.068-.804 2.756 2.756 0 00.83-2.044 2.75 2.75 0 00-.83-2.053 2.829 2.829 0 00-2.068-.813 2.827 2.827 0 00-2.699 1.753 2.75 2.75 0 00-.198 1.113 2.75 2.75 0 00.829 2.044zM50.317 4.134h8.01v9.645H56.14V6.072h-3.62v2.127c.006.644-.033 1.289-.115 1.929a7.968 7.968 0 01-.46 1.74 2.849 2.849 0 01-1.11 1.415 3.402 3.402 0 01-1.926.496h-.806v-2.035h.562c.335.01.663-.103.92-.316a1.73 1.73 0 00.498-.92c.08-.36.139-.725.175-1.092.028-.317.042-.726.042-1.236l.018-4.046zM66.024 12.034a2.54 2.54 0 002.276-1.052h2.381a4.558 4.558 0 01-1.801 2.25 5.104 5.104 0 01-2.856.827 5.043 5.043 0 01-3.685-1.447 4.907 4.907 0 01-1.47-3.651 4.963 4.963 0 011.429-3.624 4.856 4.856 0 013.62-1.451 4.692 4.692 0 013.52 1.433 4.921 4.921 0 011.381 3.56c.009.29-.005.58-.041.867H63.14a2.63 2.63 0 00.985 1.658 2.94 2.94 0 001.898.63zm-.106-6.192a2.866 2.866 0 00-1.842.593 2.327 2.327 0 00-.921 1.557h5.32a2.491 2.491 0 00-.82-1.562 2.598 2.598 0 00-1.737-.588zM80.713 4.134h2.197v9.645h-2.197V9.89h-5.15v3.89h-2.192V4.134h2.193V7.95h5.15V4.134zM90.625 3.886a5.038 5.038 0 014.805 3.119c.255.626.377 1.299.359 1.975a4.87 4.87 0 01-1.479 3.623 5.031 5.031 0 01-3.685 1.456 5.08 5.08 0 01-3.684-1.446 4.873 4.873 0 01-1.48-3.633 4.903 4.903 0 011.48-3.643 5.07 5.07 0 013.684-1.451zm0 8.148a2.83 2.83 0 002.133-.864 3.048 3.048 0 00.83-2.19 3.051 3.051 0 00-.83-2.205 2.81 2.81 0 00-2.133-.868 2.84 2.84 0 00-2.128.877 3.034 3.034 0 00-.852 2.196 3.003 3.003 0 00.852 2.177 2.819 2.819 0 002.128.877zM110.906 8.938a2.327 2.327 0 011.096 2.108 2.573 2.573 0 01-.829 1.957c-.653.557-1.5.835-2.358.776h-5.919V4.133h5.818c.86-.06 1.71.22 2.367.777a2.593 2.593 0 01.82 1.98 2.362 2.362 0 01-.995 2.048zm-5.813-.864h3.331c.856 0 1.28-.353 1.28-1.051 0-.699-.424-1.052-1.28-1.052h-3.331v2.103zm0 3.877h3.432c.857 0 1.285-.35 1.285-1.052 0-.703-.428-1.052-1.285-1.052h-3.432v2.104z" fill="#070707"/></svg>