<svg width="132" height="18" fill="none" xmlns="http://www.w3.org/2000/svg"><path d="M90.624 4.181v9.638h-2.192V4.18h2.192zM89.688 2.532a1.26 1.26 0 001.16-.774 1.248 1.248 0 00-.274-1.365 1.257 1.257 0 00-2.046 1.37 1.246 1.246 0 001.16.769zM103.662.032v13.805h-2.193v-.887a4.171 4.171 0 01-3.04 1.155c-3.142.01-4.9-2.435-4.9-5.073 0-2.638 1.78-5.082 4.923-5.082a4.184 4.184 0 013.04 1.155V.032h2.17zm-5.099 5.923c-1.72 0-2.873 1.386-2.873 3.073 0 1.686 1.158 3.053 2.873 3.053.815 0 1.597-.322 2.173-.897a3.06 3.06 0 000-4.332 3.077 3.077 0 00-2.173-.897zM113.395 11.278h2.382a4.826 4.826 0 01-1.828 2.27c-.83.551-1.81.833-2.807.807a4.993 4.993 0 01-3.674-1.435 4.97 4.97 0 01-1.475-3.647c-.024-.67.09-1.337.335-1.96a4.925 4.925 0 014.712-3.122c2.874 0 4.899 2.19 4.899 4.994.019.29.005.581-.042.868h-7.652a2.775 2.775 0 002.874 2.31 2.607 2.607 0 002.276-1.085zm-5.099-2.994h5.307a2.472 2.472 0 00-.871-1.579 2.485 2.485 0 00-1.715-.57c-1.404 0-2.544.85-2.73 2.149h.009zM120.62 4.181v9.638h-2.187V4.18h2.187zM119.684 2.532a1.262 1.262 0 001.164-.77 1.248 1.248 0 00-.915-1.71 1.26 1.26 0 00-1.291.535 1.253 1.253 0 001.042 1.945zM126.159.032v13.805h-2.188V.032h2.188z" fill="#070707"/><path d="M129.046 12.548a1.47 1.47 0 00.9 1.374 1.483 1.483 0 001.617-.306c.206-.207.348-.469.408-.754a1.474 1.474 0 00-.307-1.225 1.479 1.479 0 00-1.148-.535 1.458 1.458 0 00-1.47 1.386v.06z" fill="#ED2024"/><path opacity=".4" d="M14.275 13.8V8.335a2.55 2.55 0 00-.58-1.775 2.226 2.226 0 00-1.737-.642 2.496 2.496 0 00-1.854.804 2.932 2.932 0 00-.774 2.125V13.8H7.133V8.335a2.527 2.527 0 00-.58-1.775 2.212 2.212 0 00-1.737-.642 2.45 2.45 0 00-1.854.804 2.905 2.905 0 00-.77 2.084V13.8H0V4.167h2.192v.887A3.709 3.709 0 015.135 3.9c1.626 0 2.798.542 3.518 1.627a4.341 4.341 0 013.601-1.627 4.183 4.183 0 013.05 1.132 4.035 4.035 0 011.15 3.013V13.8h-2.179zM23.401 3.9a5.51 5.51 0 013.458 1.006 3.374 3.374 0 011.302 2.828V13.8h-2.192v-.887c-.733.772-1.813 1.155-3.245 1.155a4.375 4.375 0 01-2.822-.836 2.892 2.892 0 01-1.048-2.402 2.628 2.628 0 01.654-1.849c.428-.47.98-.809 1.594-.979a7.82 7.82 0 012.16-.268h2.711a1.499 1.499 0 00-.704-1.386 3.397 3.397 0 00-1.854-.462c-1.313 0-2.134.413-2.461 1.238h-2.34c.24-.997.86-1.861 1.728-2.412a5.51 5.51 0 013.06-.813zm2.568 6.102v-.508h-2.73c-1.465 0-2.197.462-2.197 1.34a1.155 1.155 0 00.542 1.021c.45.264.967.39 1.488.36a3.452 3.452 0 002.09-.586 1.9 1.9 0 00.807-1.627zM38.469 0h2.197v13.8h-2.197v-.887a3.976 3.976 0 01-3.04 1.155 4.579 4.579 0 01-3.593-1.497 5.193 5.193 0 01-1.334-3.576 5.23 5.23 0 011.334-3.603 4.56 4.56 0 013.592-1.493 3.988 3.988 0 013.04 1.155V0zm-.797 11.25a2.873 2.873 0 00.88-2.255 2.913 2.913 0 00-.88-2.273 3 3 0 00-2.1-.804 2.658 2.658 0 00-2.067.897 3.135 3.135 0 00-.811 2.18 3.09 3.09 0 00.81 2.153 2.638 2.638 0 002.068.897c.777.015 1.53-.27 2.1-.795zM48.364 12.045a2.546 2.546 0 002.276-1.05h2.377a4.535 4.535 0 01-1.798 2.246 5.11 5.11 0 01-2.855.827 5.033 5.033 0 01-3.708-1.446 4.89 4.89 0 01-1.47-3.65 4.967 4.967 0 011.452-3.636 4.844 4.844 0 013.62-1.45 4.68 4.68 0 013.517 1.432 4.92 4.92 0 011.39 3.557c.01.29-.005.58-.041.869h-7.638c.105.657.456 1.25.982 1.659a2.963 2.963 0 001.896.642zm-.107-6.187a2.884 2.884 0 00-1.83.587 2.336 2.336 0 00-.9 1.557h5.321a2.488 2.488 0 00-.862-1.566 2.596 2.596 0 00-1.729-.578zM60.261 0h2.216v5.054a3.973 3.973 0 013.04-1.155 4.578 4.578 0 013.592 1.493 5.23 5.23 0 011.335 3.603 5.193 5.193 0 01-1.335 3.576 4.57 4.57 0 01-3.592 1.497 3.984 3.984 0 01-3.04-1.155v.887H60.28L60.261 0zm2.99 6.722a2.933 2.933 0 00-.876 2.273 2.879 2.879 0 00.876 2.255c.573.525 1.326.81 2.104.795a2.65 2.65 0 002.067-.897c.535-.589.823-1.359.807-2.153a3.155 3.155 0 00-.807-2.18 2.66 2.66 0 00-2.067-.897 3.018 3.018 0 00-2.104.804zM75.742 13.592l-4.264-9.425h2.442l3.045 6.746 3.022-6.746h2.318L77.71 14.332a17.347 17.347 0 01-1.427 2.721 2.673 2.673 0 01-1.965.924c-.181 0-.38.023-.603.023H72.54v-1.917h.848c.405.018.804-.106 1.126-.351.371-.369.658-.813.84-1.303l.389-.837z" fill="#070707"/></svg>