<svg version="1" xmlns="http://www.w3.org/2000/svg" width="364" height="364" viewBox="0 0 273.000000 273.000000"><path d="M104.1 15.1c.1 5-.1 9.2-.3 9.4-.2.3-9.6.5-20.9.5-12.8.1-22.5.6-26 1.5-27.9 6.4-49 27.4-55.3 55-2.4 10.8-2.1 81 .4 91 5.6 21.8 20.9 40.1 40.8 48.6 10.7 4.6 18.2 5.7 40 5.9 11.3 0 20.8.2 21 .4.2.2.3 9 .3 19.5V266h61.5l-.1-17.8c0-9.7.1-18.4.3-19.4.3-1.4 3.1-1.7 25-2 20.1-.4 25.7-.8 30.2-2.2 24.6-8 41-24.4 49.1-49.1 2.2-6.7 2.3-8.4 2.5-46.5.3-43.2-.1-47.1-5.4-59.9-7.2-17.2-19.5-29.7-36.6-37.7-11.3-5.1-14.4-5.6-40.6-6.3l-24.5-.6.1-9.3.1-9.2h-61.6v9.1zm-.1 59.6c.1 5.8.1 96.9 0 103.3v4.6l-9.2-.1c-5.1-.1-10.9-.5-12.8-1-8.8-1.9-18.2-9.1-22.3-17-3.7-7.3-4.3-12.9-4.2-40 .1-29.1.7-32.1 7-40.7 7-9.5 16.7-13.7 31.8-13.8h9.7v4.7zm90.1-1.6c3.1 1.5 6.8 3.7 8.3 5 4 3.5 9.2 11.8 10.6 16.9 1.8 6.5 1.8 57.1 0 62.5-2.3 7-5.1 11.4-10.1 15.9-7 6.3-14.1 8.8-26.1 9-5.4.2-10.1 0-10.5-.3-.5-.3-.8-25.7-.8-56.4V69.8l11.5.4c9.8.3 12.3.7 17.1 2.9z"/></svg>