<svg width="22" height="19" fill="none" xmlns="http://www.w3.org/2000/svg"><path d="M16.463 15.502c-.586 0-1.06.474-1.06 1.06H2.143V7.067h1.623a1.059 1.059 0 100-2.12H.97c-.564 0-.97.474-.97 1.106v11.704c0 .564.383.925.97.925h15.448c.632 0 1.083-.383 1.083-.925v-1.195c.022-.586-.474-1.06-1.038-1.06z" fill="#ED3237"/><path d="M21.696 6.3L15.809.325a1.077 1.077 0 00-1.85.744v2.459c-2.998.18-5.321 1.127-7.08 2.886-2.752 2.774-2.775 6.473-2.775 6.63 0 .497.339.903.79 1.038.09.023.18.046.27.046.384 0 .745-.203.925-.542 1.579-2.819 5.954-3.045 7.871-3v2.482c0 .428.27.812.677.992.406.158.88.068 1.172-.248l5.887-5.977a1.118 1.118 0 000-1.533zm-6.54 2.188c-.113-.022-.7-.067-1.58-.067-1.803 0-4.375.248-6.517 1.398.36-.722.79-1.353 1.33-1.895 1.512-1.51 3.744-2.3 6.654-2.3.586 0 1.06-.474 1.06-1.06v-.88l3.315 3.384-3.315 3.382v-.88c0-.563-.406-1.014-.948-1.082z" fill="#ED3237"/></svg>