<svg width="0" height="0" class="hidden">
  <symbol xmlns="http://www.w3.org/2000/svg" viewBox="0 0 30 30" id="close">
    <path d="M27.3481 0.00607115L0 27.3464L2.64803 29.9952L29.9961 2.65485L27.3481 0.00607115Z"></path>
    <path d="M2.65194 0.0042971L0.00390625 2.65308L27.352 29.9934L30 27.3447L2.65194 0.0042971Z"></path>
  </symbol>
  <symbol xmlns="http://www.w3.org/2000/svg" viewBox="0 0 108 108" id="play">
    <path d="M54 108C43.3198 108 32.8795 104.833 23.9992 98.8993C15.119 92.9658 8.19766 84.5321 4.11053 74.6649C0.0233971 64.7977 -1.04598 53.9401 1.03762 43.4651C3.12122 32.9902 8.26422 23.3683 15.8163 15.8163C23.3683 8.26422 32.9902 3.12122 43.4651 1.03762C53.9401 -1.04598 64.7977 0.0233971 74.6649 4.11053C84.5321 8.19766 92.9658 15.119 98.8993 23.9992C104.833 32.8795 108 43.3198 108 54C107.973 68.3133 102.275 82.0327 92.1537 92.1537C82.0327 102.275 68.3133 107.973 54 108ZM54 5.14288C44.337 5.14288 34.891 8.0083 26.8564 13.3768C18.8219 18.7453 12.5598 26.3757 8.86191 35.3032C5.16403 44.2307 4.19649 54.0542 6.08166 63.5316C7.96682 73.0089 12.62 81.7144 19.4528 88.5472C26.2856 95.38 34.9911 100.033 44.4685 101.918C53.9458 103.804 63.7693 102.836 72.6968 99.1381C81.6243 95.4402 89.2547 89.1781 94.6232 81.1436C99.9917 73.1091 102.857 63.663 102.857 54C102.833 41.0496 97.6783 28.6364 88.5209 19.4791C79.3636 10.3217 66.9504 5.16667 54 5.14288Z"></path>
    <path d="M73.7098 50.6572L47.7769 35.6786C47.1904 35.34 46.525 35.1618 45.8477 35.1619C45.1705 35.162 44.5051 35.3404 43.9187 35.6792C43.3323 36.0181 42.8454 36.5053 42.507 37.092C42.1687 37.6787 41.9908 38.3442 41.9912 39.0215V68.9786C41.9908 69.6559 42.1687 70.3213 42.507 70.9081C42.8454 71.4948 43.3323 71.982 43.9187 72.3209C44.5051 72.6597 45.1705 72.8381 45.8477 72.8382C46.525 72.8383 47.1904 72.6601 47.7769 72.3215L73.7098 57.3429C74.2973 57.0047 74.7853 56.5176 75.1246 55.9308C75.464 55.3439 75.6426 54.678 75.6426 54C75.6426 53.3221 75.464 52.6562 75.1246 52.0693C74.7853 51.4825 74.2973 50.9954 73.7098 50.6572Z"></path>
  </symbol>
  <symbol xmlns="http://www.w3.org/2000/svg" viewBox="0 0 20 13" id="rating-1">
    <path d="M12.8906 3.28906C12.8906 1.51224 11.4448 0.0664062 9.66797 0.0664062C7.89114 0.0664062 6.44531 1.51224 6.44531 3.28906C6.44531 5.06589 7.89114 6.51172 9.66797 6.51172C11.4448 6.51172 12.8906 5.06589 12.8906 3.28906Z"></path>
    <path d="M5.15625 11.0234V13H14.1797V11.0234C14.1797 8.53595 12.1555 6.51172 9.66797 6.51172C7.18048 6.51172 5.15625 8.53595 5.15625 11.0234Z"></path>
    <path d="M19.336 12.3125C19.336 10.5357 17.8901 9.08984 16.1133 9.08984C15.78 9.08984 15.4647 9.1553 15.1621 9.24963C15.3446 9.81226 15.4688 10.4009 15.4688 11.0234V13H19.336V12.3125Z"></path>
    <path d="M18.6914 6.51172C18.6914 5.08989 17.5351 3.93359 16.1133 3.93359C14.6915 3.93359 13.5352 5.08989 13.5352 6.51172C13.5352 6.5938 13.5518 6.67134 13.5593 6.7514C14.195 7.33081 14.7076 8.03795 15.0369 8.8468C15.3655 8.99904 15.7279 9.08984 16.1133 9.08984C17.5351 9.08984 18.6914 7.93355 18.6914 6.51172Z"></path>
    <path d="M5.77661 6.7514C5.78416 6.67134 5.80078 6.5938 5.80078 6.51172C5.80078 5.08989 4.64449 3.93359 3.22266 3.93359C1.80083 3.93359 0.644531 5.08989 0.644531 6.51172C0.644531 7.93355 1.80083 9.08984 3.22266 9.08984C3.60803 9.08984 3.97041 8.99904 4.29906 8.84697C4.62837 8.03795 5.14098 7.33081 5.77661 6.7514Z"></path>
    <path d="M0 12.3125V13H3.86719V11.0234C3.86719 10.4009 3.99139 9.81226 4.17384 9.24963C3.87122 9.1553 3.556 9.08984 3.22266 9.08984C1.44583 9.08984 0 10.5357 0 12.3125Z"></path>
  </symbol>
  <symbol xmlns="http://www.w3.org/2000/svg" viewBox="0 0 13 13" id="rating-2">
    <path d="M11.3749 4.6427H8.12491V1.85693C8.12491 0.8327 7.39609 -0.000244141 6.4999 -0.000244141H5.28114C5.05689 -0.000244141 4.87489 0.20776 4.87489 0.46405V2.66202L3.3035 5.80529C3.26775 5.87587 3.24988 5.9548 3.24988 6.03558V12.5357C3.24988 12.792 3.43188 13 3.65613 13H10.1765C10.8184 13 11.4017 12.5663 11.6609 11.8968L12.9642 8.54556C12.9878 8.48613 12.9999 8.42206 12.9999 8.35706V6.49988C12.9999 5.47564 12.2711 4.6427 11.3749 4.6427Z"></path>
    <path d="M0.406253 5.57123C0.182001 5.57123 0 5.77923 0 6.03552V12.5356C0 12.7919 0.182001 12.9999 0.406253 12.9999H2.43752V5.57123H0.406253Z"></path>
  </symbol>
  <symbol xmlns="http://www.w3.org/2000/svg" viewBox="0 0 13 13" id="rating-3">
    <path d="M1.62495 8.35724H4.87497L4.87497 11.143C4.87497 12.1672 5.60379 13.0002 6.49998 13.0002H7.71874C7.94299 13.0002 8.12499 12.7922 8.12499 12.5359V10.3379L9.69637 7.19465C9.73212 7.12408 9.75 7.04515 9.75 6.96436L9.75 0.464247C9.75 0.207956 9.568 -4.76837e-05 9.34375 -4.76837e-05H2.8234C2.18152 -4.76837e-05 1.59814 0.433602 1.33895 1.10311L0.0356903 4.45439C0.0121269 4.51382 -6.00815e-05 4.57789 -6.00815e-05 4.64289L-6.00815e-05 6.50007C-6.00815e-05 7.5243 0.728757 8.35724 1.62495 8.35724Z"></path>
    <path d="M12.5937 7.42865C12.818 7.42865 13 7.22065 13 6.96436V0.46424C13 0.207949 12.818 -5.43594e-05 12.5937 -5.43594e-05H10.5625V7.42865H12.5937Z"></path>
  </symbol>
  <symbol xmlns="http://www.w3.org/2000/svg" viewBox="0 0 14 13" id="rating-4">
    <path d="M6.66906 0H6.66741L0.167969 13H13.168L6.66906 0ZM6.66797 3.61844L10.5496 11.3817L8.83464 11.375L5.58464 5.41667L6.66797 3.61844Z"></path>
  </symbol>
  <symbol xmlns="http://www.w3.org/2000/svg" viewBox="0 0 20 20" id="search">
    <path d="M19.7236 18.263L16.0223 14.5658C18.8541 11.0422 18.5809 5.83127 15.3516 2.63027C13.6624 0.942928 11.4019 0 8.99236 0C6.5828 0 4.34713 0.942928 2.63312 2.63027C0.943949 4.31762 0 6.57568 0 8.98263C0 11.3896 0.943949 13.6228 2.63312 15.335C4.32229 17.0223 6.5828 17.9653 8.99236 17.9653C11.0293 17.9653 13.0166 17.2705 14.6064 16.005L18.3076 19.7022C18.5064 19.9007 18.7548 20 19.0032 20C19.2764 20 19.5248 19.9007 19.6987 19.7022C20.0962 19.2804 20.0962 18.66 19.7236 18.263ZM15.9975 8.95782C15.9975 10.8189 15.2771 12.5806 13.9605 13.8958C12.644 15.2109 10.8803 15.9305 9.0172 15.9305C7.15414 15.9305 5.39045 15.2109 4.07389 13.8958C2.75733 12.5806 2.03694 10.8189 2.03694 8.95782C2.03694 7.09678 2.75733 5.33499 4.07389 4.01985C5.39045 2.70471 7.15414 1.98511 9.0172 1.98511C10.8803 1.98511 12.644 2.70471 13.9605 4.01985C15.2771 5.33499 15.9975 7.09678 15.9975 8.95782Z"></path>
  </symbol>

    <symbol xmlns="http://www.w3.org/2000/svg" viewBox="0 0 42 26" id="arrow">
    <path d="M0 14.3804L35.8803 14.3804L26.9565 23.3042L29.2174 25.5652L42 12.7825L29.2174 -3.43323e-05L26.9565 2.26084L35.8803 11.1847L0 11.1847V14.3804Z"></path>
  </symbol>
  <symbol xmlns="http://www.w3.org/2000/svg" viewBox="0 0 23 14" id="back">
    <path d="M23 6.12499H3.35127L8.23812 1.23814L7.00002 0L0 7.00002L7.00002 14L8.23812 12.7619L3.35127 7.87501H23V6.12499Z"></path>
  </symbol>
  <symbol xmlns="http://www.w3.org/2000/svg" viewBox="0 0 15 12" id="done">
    <path d="M0.251708 6.77925C0.0871134 6.95658 0.0070233 7.18233 0.0265728 7.41567C0.0461224 7.649 0.162158 7.86133 0.354501 8.013L5.02306 11.7148C5.19648 11.8519 5.41153 11.9254 5.63729 11.9254C5.66504 11.9254 5.69342 11.9242 5.7218 11.9219C5.9772 11.9009 6.20738 11.7883 6.37009 11.6058L14.3551 2.616C14.5153 2.43517 14.5904 2.20767 14.5658 1.97492C14.5405 1.74217 14.4201 1.53217 14.2246 1.38342L12.7628 0.272748C12.3598 -0.0329182 11.7632 0.0207484 11.4315 0.393498L5.28603 7.31242L2.81648 5.35533C2.42045 5.04267 1.82261 5.08408 1.4827 5.45042L0.251708 6.77925Z"></path>
  </symbol>
  <symbol xmlns="http://www.w3.org/2000/svg" viewBox="0 0 18 16" id="like">
    <path d="M15.75 5.625H11.25V2.25C11.25 1.00912 10.2409 0 9 0H7.3125C7.002 0 6.75 0.252 6.75 0.5625V3.22538L4.57425 7.0335C4.52475 7.119 4.5 7.21462 4.5 7.3125V15.1875C4.5 15.498 4.752 15.75 5.0625 15.75H14.0906C14.9794 15.75 15.7871 15.2246 16.146 14.4135L17.9505 10.3534C17.9831 10.2814 18 10.2037 18 10.125V7.875C18 6.63412 16.9909 5.625 15.75 5.625Z"></path>
    <path d="M0.5625 6.75C0.252 6.75 0 7.002 0 7.3125V15.1875C0 15.498 0.252 15.75 0.5625 15.75H3.375V6.75H0.5625Z"></path>
  </symbol>

   <symbol fill="none" xmlns="http://www.w3.org/2000/svg" viewBox="0 0 10 18" id="facebook">
    <path d="M2.94014 18V9.79401H0V6.60499H2.94014V4.16884C2.94014 3.28446 3.15845 2.49871 3.59155 1.81816C4.34507 0.606115 5.60916 9.10135e-05 7.3838 9.10135e-05C8.25803 -0.00233583 9.13164 0.0437727 10 0.138173V2.99186H8.42958C7.51056 2.99186 6.94366 3.17925 6.72183 3.55076C6.62324 3.72172 6.57394 3.83021 6.57394 3.87624C6.51408 3.99788 6.48239 4.30692 6.48239 4.80993V6.6017H9.88028L9.44718 9.79073H6.48239V17.9967H2.94014V18Z" fill="#6379AB"></path>
  </symbol>
</svg>
