<svg width="20" height="16" fill="none" xmlns="http://www.w3.org/2000/svg"><path fill-rule="evenodd" clip-rule="evenodd" d="M15.32 15.084c.268.171.614.214.922.109a.904.904 0 00.604-.63c.724-3.063 2.48-10.816 3.14-13.602a.553.553 0 00-.217-.568.726.726 0 00-.664-.105C15.61 1.452 4.85 5.085.452 6.55c-.28.093-.461.335-.452.6.01.265.208.495.494.572 1.973.531 4.562 1.27 4.562 1.27s1.21 3.289 1.84 4.961c.08.21.262.375.503.432a.78.78 0 00.676-.155l2.58-2.192s2.977 1.964 4.665 3.046zM6.145 8.577l1.399 4.153.31-2.63 8.488-6.89a.194.194 0 00.028-.282.255.255 0 00-.314-.048L6.146 8.577z" fill="#339FD4"/></svg>