<svg width="20" height="14" viewBox="0 0 20 15" fill="none" xmlns="http://www.w3.org/2000/svg"><path d="M10 13.874c-3.891 0-7.351-2.28-8.814-5.81a2.47 2.47 0 010-1.88C2.649 2.654 6.109.374 10 .374c3.89 0 7.35 2.28 8.814 5.81a2.472 2.472 0 010 1.88c-1.464 3.53-4.923 5.81-8.814 5.81zm0-12.375c-3.435 0-6.486 2.008-7.775 5.116a1.34 1.34 0 000 1.02c1.289 3.106 4.34 5.114 7.775 5.114 3.435 0 6.486-2.008 7.774-5.116a1.338 1.338 0 000-1.018C16.486 3.507 13.434 1.499 10 1.499z" fill="gray" stroke="gray" stroke-width=".5"/><path d="M10 10.124c-1.655 0-3-1.346-3-3s1.345-3 3-3c1.654 0 3 1.346 3 3s-1.346 3-3 3zm0-4.875a1.878 1.878 0 00-1.875 1.875c0 1.033.841 1.875 1.874 1.875a1.878 1.878 0 001.876-1.875 1.878 1.878 0 00-1.876-1.875z" fill="gray" stroke="gray" stroke-width=".5"/></svg>